PathFileType	4	(X/Y/Z)	1H_nor_slow_right.trc
DataRate	CameraRate	NumFrames	NumMarkers	Units	OrigDataRate	OrigDataStartFrame	OrigNumFrames
250.00	250.00	12	18	mm	250.00	6368	25471
Frame#	Time	c7	r_should	l_should	clavicle	r_upa	r_elb_l	r_elb_m	r_low	r_wri_l	r_wri_m	r_met	l_upa	l_elb_l	l_elb_m	l_low	l_wri_l	l_wri_m	l_met
	X1	Y1	Z1	X2	Y2	Z2	X3	Y3	Z3	X4	Y4	Z4	X5	Y5	Z5	X6	Y6	Z6	X7	Y7	Z7	X8	Y8	Z8	X9	Y9	Z9	X10	Y10	Z10	X11	Y11	Z11	X12	Y12	Z12	X13	Y13	Z13	X14	Y14	Z14	X15	Y15	Z15	X16	Y16	Z16	X17	Y17	Z17	X18	Y18	Z18
6368	25.46800	1191.55530	1428.14685	177.85147	1279.28516	1365.97656	319.71796	1170.98999	1361.78442	2.88584	1295.40222	1288.75085	141.94962	1324.73401	1164.33521	385.08316	1332.92871	1088.78040	406.58685	1251.71033	1049.59888	394.10733	1374.13159	996.22705	336.42383	1405.51709	923.61285	252.66853	1372.60364	872.44684	299.92026	1462.77258	871.31262	243.84589	1152.61316	1152.18372	-63.64952	1160.75891	1047.40295	-82.03711	1127.44714	1032.39221	7.10921	1197.58411	935.77606	-69.79892	1251.04016	829.78210	-25.98046	1177.50574	808.18134	-43.81411	1252.70740	745.33496	-65.70421
6369	25.47200	1191.58936	1428.15344	177.79442	1279.26172	1365.99670	319.68137	1171.07227	1361.75720	2.82384	1295.94995	1288.07739	142.53210	1325.04883	1164.00024	385.46674	1332.84766	1088.94824	406.70529	1251.65930	1049.71606	394.19366	1374.14807	996.63403	336.39563	1405.58191	924.28961	252.47589	1372.72778	872.97894	299.60471	1462.90564	872.02783	243.54669	1152.71252	1152.15417	-63.68581	1160.83020	1047.39172	-82.08578	1127.51367	1032.37231	7.06219	1197.65637	935.74750	-69.82679	1251.08997	829.74725	-25.98054	1177.55261	808.15302	-43.84909	1252.75879	745.29504	-65.69902
6370	25.47600	1191.62146	1428.15808	177.74266	1279.23853	1366.02246	319.65054	1171.15112	1361.72644	2.76641	1296.11108	1287.89709	142.68594	1325.82483	1163.14648	386.22534	1332.76013	1089.10596	406.81528	1251.60486	1049.83521	394.27789	1374.16650	997.03314	336.37744	1405.65088	924.97418	252.29675	1372.86438	873.50262	299.27875	1462.97363	872.68567	243.24557	1152.81531	1152.12231	-63.72045	1160.91589	1047.37256	-82.12299	1127.57471	1032.35071	7.01526	1198.32141	935.04962	-69.36114	1251.14368	829.71313	-25.97355	1177.60303	808.13092	-43.87211	1252.81543	745.25482	-65.69086
6371	25.48000	1191.64783	1428.16211	177.69295	1279.04382	1366.20728	319.56116	1171.23193	1361.69543	2.71553	1296.17261	1287.84180	142.73280	1325.97778	1162.97827	386.47522	1332.67102	1089.25671	406.92111	1251.54846	1049.95569	394.36658	1374.17603	997.40820	336.36127	1405.72290	925.63904	252.11850	1372.98926	874.03363	298.97864	1463.01294	873.30695	242.92477	1152.91675	1152.09131	-63.75380	1161.46289	1046.92407	-81.77480	1127.64111	1032.32605	6.97026	1199.12891	934.18805	-68.76576	1251.19543	829.68109	-25.97042	1177.64893	808.11456	-43.89643	1252.87439	745.21198	-65.68305
6372	25.48400	1191.67627	1428.16418	177.64423	1278.63757	1366.58899	319.39343	1171.30798	1361.66736	2.66276	1296.20898	1287.81677	142.74788	1325.97595	1162.98242	386.59592	1332.56848	1089.40198	407.02609	1251.48059	1050.06775	394.46045	1374.16980	997.78290	336.33466	1405.79211	926.29840	251.93108	1373.09375	874.56860	298.67050	1463.04321	873.92456	242.60722	1153.01086	1152.06006	-63.78643	1162.58057	1045.93372	-80.93037	1127.72266	1032.29553	6.92297	1198.19617	935.29187	-69.62997	1251.24353	829.65271	-25.96924	1177.70361	808.09436	-43.91450	1252.93408	745.16852	-65.67417
6373	25.48800	1191.62646	1428.42285	177.93176	1278.50818	1366.70508	319.33023	1171.38123	1361.63696	2.61023	1296.23743	1287.79700	142.75581	1325.93506	1163.03040	386.68393	1332.46375	1089.55554	407.14084	1251.41040	1050.17542	394.55658	1374.16431	998.18628	336.31042	1405.86780	926.96057	251.74988	1373.19409	875.08966	298.32767	1463.05627	874.56036	242.28986	1153.10278	1152.02661	-63.82107	1162.93091	1045.65295	-80.74065	1127.79651	1032.25977	6.88177	1198.01453	935.54382	-69.85963	1251.29529	829.61914	-25.96401	1177.76233	808.06006	-43.92198	1252.99524	745.13123	-65.66700
6374	25.49200	1191.47717	1429.00073	178.63387	1278.45581	1366.75305	319.29617	1171.46216	1361.59668	2.55705	1296.26147	1287.77893	142.75706	1325.87744	1163.09070	386.76172	1332.35120	1089.71326	407.25742	1251.34485	1050.27991	394.63910	1374.15698	998.60455	336.27475	1405.94312	927.64423	251.59276	1373.31506	875.62274	297.98090	1463.06580	875.19513	241.96277	1153.18860	1151.99487	-63.85542	1163.08545	1045.55579	-80.71063	1127.86438	1032.22583	6.84907	1198.02808	935.58820	-69.93928	1251.34985	829.58746	-25.96339	1177.82617	808.02148	-43.93005	1253.06042	745.09015	-65.66367
6375	25.49600	1191.46118	1429.14221	178.77545	1278.41736	1366.78333	319.27222	1171.54407	1361.56006	2.50484	1296.28503	1287.76013	142.75873	1325.82031	1163.14893	386.84344	1332.24622	1089.86780	407.37759	1251.27490	1050.38354	394.71625	1374.14832	999.02545	336.24829	1406.01660	928.32910	251.42896	1373.45288	876.17468	297.66547	1463.11328	875.83490	241.63980	1153.72815	1151.52783	-63.50129	1163.19421	1045.51111	-80.72063	1127.94836	1032.18823	6.81117	1198.09058	935.57861	-69.97333	1251.40137	829.55438	-25.96440	1177.89111	807.98462	-43.94279	1253.13232	745.04700	-65.65899
6376	25.50000	1191.55554	1428.91858	178.43726	1278.38159	1366.81445	319.25278	1171.62366	1361.52771	2.45900	1296.30640	1287.73877	142.76535	1325.76367	1163.20959	386.92307	1332.15027	1090.01611	407.49323	1251.20825	1050.48987	394.80701	1374.13660	999.43988	336.21722	1406.08484	928.98535	251.25847	1373.57996	876.71899	297.38266	1463.18372	876.50018	241.32788	1154.84009	1150.51709	-62.66643	1163.28833	1045.46997	-80.74107	1128.01880	1032.16199	6.77833	1198.16406	935.55042	-69.98922	1251.45825	829.51331	-25.96604	1177.95496	807.94397	-43.95743	1253.20752	745.00696	-65.65494
6377	25.50400	1191.75305	1428.34668	177.64288	1278.34033	1366.84387	319.23099	1171.70215	1361.49268	2.40755	1296.32483	1287.71948	142.76622	1325.71240	1163.27661	387.00137	1332.06372	1090.17749	407.60999	1251.15540	1050.59290	394.88840	1374.13245	999.84998	336.18866	1406.13867	929.63574	251.05742	1373.69849	877.26208	297.09152	1463.26074	877.20123	241.02216	1154.72559	1150.66797	-62.86480	1163.37622	1045.42957	-80.77012	1128.09277	1032.12646	6.74497	1198.24548	935.51862	-70.00414	1251.52612	829.47626	-25.96307	1178.02551	807.90802	-43.97260	1253.28650	744.97174	-65.65330
6378	25.50800	1191.81982	1428.20239	177.40112	1278.28992	1366.87573	319.21106	1171.77844	1361.46179	2.35421	1296.34900	1287.69946	142.76711	1325.65613	1163.34546	387.08008	1331.97266	1090.34314	407.72568	1251.10193	1050.70142	394.96857	1374.12976	1000.24805	336.16537	1406.19519	930.31543	250.85718	1373.81909	877.78149	296.74976	1463.35193	877.91846	240.72816	1154.29797	1151.11096	-63.32834	1163.46619	1045.39111	-80.80730	1128.16833	1032.09497	6.71398	1198.32910	935.48834	-70.02463	1251.58557	829.43939	-25.95738	1178.09521	807.87329	-43.97992	1253.36426	744.93463	-65.65524
6379	25.51200	1191.85376	1428.16406	177.30174	1278.24426	1366.90405	319.18958	1171.84985	1361.43445	2.30332	1296.36877	1287.68530	142.76895	1325.59375	1163.41663	387.16400	1331.87280	1090.51318	407.84131	1251.04712	1050.80872	395.05273	1374.12097	1000.63751	336.14505	1406.24487	931.00751	250.64597	1373.94434	878.28485	296.37439	1462.98291	878.50977	240.17668	1155.16187	1150.33215	-62.68999	1163.55615	1045.35828	-80.82987	1128.23328	1032.06873	6.69048	1198.40796	935.45953	-70.03741	1251.64722	829.40186	-25.95349	1178.16553	807.84930	-43.99339	1253.44421	744.89923	-65.65429
